<mxfile host="65bd71144e">
    <diagram id="VUlZrNLKj0H3eoXomR7d" name="Page-1">
        <mxGraphModel dx="1433" dy="617" grid="1" gridSize="10" guides="1" tooltips="1" connect="1" arrows="1" fold="1" page="1" pageScale="1" pageWidth="1100" pageHeight="850" math="0" shadow="0">
            <root>
                <mxCell id="0"/>
                <mxCell id="1" parent="0"/>
                <mxCell id="13" style="edgeStyle=none;html=1;exitX=0.5;exitY=1;exitDx=0;exitDy=0;endArrow=none;endFill=0;fontSize=13;" parent="1" source="2" edge="1">
                    <mxGeometry relative="1" as="geometry">
                        <mxPoint x="384.35" y="502" as="targetPoint"/>
                    </mxGeometry>
                </mxCell>
                <mxCell id="2" value="&lt;b style=&quot;font-size: 13px;&quot;&gt;Spoke1&lt;/b&gt;&lt;br style=&quot;font-size: 13px;&quot;&gt;10.1.0.0/24&lt;br style=&quot;font-size: 13px;&quot;&gt;&lt;br style=&quot;font-size: 13px;&quot;&gt;&lt;b style=&quot;font-size: 13px;&quot;&gt;VM 10.1.0.4&lt;/b&gt;" style="whiteSpace=wrap;html=1;fillColor=#dae8fc;strokeColor=#6c8ebf;dashed=1;fontSize=13;" parent="1" vertex="1">
                    <mxGeometry x="184.35" y="322" width="160" height="100" as="geometry"/>
                </mxCell>
                <mxCell id="3" value="" style="aspect=fixed;html=1;points=[];align=center;image;fontSize=13;image=img/lib/azure2/networking/Virtual_Networks.svg;dashed=1;" parent="1" vertex="1">
                    <mxGeometry x="324.35" y="322" width="16.75" height="10" as="geometry"/>
                </mxCell>
                <mxCell id="14" style="edgeStyle=none;html=1;exitX=0.5;exitY=1;exitDx=0;exitDy=0;entryX=0.769;entryY=0.313;entryDx=0;entryDy=0;entryPerimeter=0;endArrow=none;endFill=0;fontSize=13;" parent="1" source="4" target="12" edge="1">
                    <mxGeometry relative="1" as="geometry"/>
                </mxCell>
                <mxCell id="4" value="&lt;b style=&quot;font-size: 13px;&quot;&gt;Spoke2&lt;/b&gt;&lt;br style=&quot;font-size: 13px;&quot;&gt;10.2.0.0/24&lt;br style=&quot;font-size: 13px;&quot;&gt;&lt;br style=&quot;font-size: 13px;&quot;&gt;&lt;b style=&quot;font-size: 13px;&quot;&gt;AZFW 10.2.0.68&lt;/b&gt;" style="whiteSpace=wrap;html=1;fillColor=#f8cecc;strokeColor=#b85450;dashed=1;fontSize=13;" parent="1" vertex="1">
                    <mxGeometry x="424.35" y="322" width="160" height="100" as="geometry"/>
                </mxCell>
                <mxCell id="5" value="" style="aspect=fixed;html=1;points=[];align=center;image;fontSize=13;image=img/lib/azure2/networking/Virtual_Networks.svg;dashed=1;" parent="1" vertex="1">
                    <mxGeometry x="564.35" y="322" width="16.75" height="10" as="geometry"/>
                </mxCell>
                <mxCell id="10" style="edgeStyle=none;html=1;exitX=0.5;exitY=1;exitDx=0;exitDy=0;entryX=0.5;entryY=0;entryDx=0;entryDy=0;endArrow=none;endFill=0;fontSize=13;" parent="1" source="6" target="4" edge="1">
                    <mxGeometry relative="1" as="geometry"/>
                </mxCell>
                <mxCell id="6" value="&lt;b style=&quot;font-size: 13px;&quot;&gt;Spoke5&lt;/b&gt;&lt;br style=&quot;font-size: 13px;&quot;&gt;10.2.1.0/24&lt;br style=&quot;font-size: 13px;&quot;&gt;&lt;br style=&quot;font-size: 13px;&quot;&gt;&lt;b style=&quot;font-size: 13px;&quot;&gt;VM 10.2.1.4&lt;/b&gt;" style="whiteSpace=wrap;html=1;fillColor=#dae8fc;strokeColor=#6c8ebf;dashed=1;fontSize=13;" parent="1" vertex="1">
                    <mxGeometry x="301.1" y="182" width="160" height="100" as="geometry"/>
                </mxCell>
                <mxCell id="7" value="" style="aspect=fixed;html=1;points=[];align=center;image;fontSize=13;image=img/lib/azure2/networking/Virtual_Networks.svg;dashed=1;" parent="1" vertex="1">
                    <mxGeometry x="444.35" y="182" width="16.75" height="10" as="geometry"/>
                </mxCell>
                <mxCell id="11" style="edgeStyle=none;html=1;exitX=0.5;exitY=1;exitDx=0;exitDy=0;endArrow=none;endFill=0;fontSize=13;" parent="1" source="8" edge="1">
                    <mxGeometry relative="1" as="geometry">
                        <mxPoint x="504.35" y="322" as="targetPoint"/>
                    </mxGeometry>
                </mxCell>
                <mxCell id="8" value="&lt;b style=&quot;font-size: 13px;&quot;&gt;Spoke6&lt;/b&gt;&lt;br style=&quot;font-size: 13px;&quot;&gt;10.2.2.0/24&lt;br style=&quot;font-size: 13px;&quot;&gt;&lt;br style=&quot;font-size: 13px;&quot;&gt;&lt;b style=&quot;font-size: 13px;&quot;&gt;VM 10.2.2.4&lt;/b&gt;" style="whiteSpace=wrap;html=1;fillColor=#dae8fc;strokeColor=#6c8ebf;dashed=1;fontSize=13;" parent="1" vertex="1">
                    <mxGeometry x="521.35" y="182" width="160" height="100" as="geometry"/>
                </mxCell>
                <mxCell id="9" value="" style="aspect=fixed;html=1;points=[];align=center;image;fontSize=13;image=img/lib/azure2/networking/Virtual_Networks.svg;dashed=1;" parent="1" vertex="1">
                    <mxGeometry x="664.6" y="182" width="16.75" height="10" as="geometry"/>
                </mxCell>
                <mxCell id="16" style="edgeStyle=none;html=1;endArrow=none;endFill=0;strokeColor=#FF8000;entryX=0.5;entryY=0;entryDx=0;entryDy=0;strokeWidth=2;fontSize=13;" parent="1" source="12" target="17" edge="1">
                    <mxGeometry relative="1" as="geometry">
                        <mxPoint x="407.35" y="652" as="targetPoint"/>
                    </mxGeometry>
                </mxCell>
                <mxCell id="18" value="IPSec + BGP" style="edgeLabel;html=1;align=center;verticalAlign=middle;resizable=0;points=[];fontStyle=1;fontColor=#FF8000;fontSize=13;" parent="16" vertex="1" connectable="0">
                    <mxGeometry x="0.3666" y="-2" relative="1" as="geometry">
                        <mxPoint x="-52" y="4" as="offset"/>
                    </mxGeometry>
                </mxCell>
                <mxCell id="47" style="edgeStyle=none;html=1;strokeColor=#000000;fontColor=#FF8000;endArrow=none;endFill=0;dashed=1;fontSize=13;" edge="1" parent="1" source="12" target="39">
                    <mxGeometry relative="1" as="geometry"/>
                </mxCell>
                <mxCell id="12" value="&lt;b style=&quot;font-size: 13px;&quot;&gt;Hub1&lt;br style=&quot;font-size: 13px;&quot;&gt;192.168.1.0/24&lt;/b&gt;" style="aspect=fixed;html=1;points=[];align=center;image;fontSize=13;image=img/lib/azure2/networking/Virtual_WANs.svg;" parent="1" vertex="1">
                    <mxGeometry x="374.35" y="492" width="79.22" height="78" as="geometry"/>
                </mxCell>
                <mxCell id="17" value="&lt;b style=&quot;font-size: 13px;&quot;&gt;Branch 1&lt;/b&gt;&lt;br style=&quot;font-size: 13px;&quot;&gt;10.100.0.0/16&lt;br style=&quot;font-size: 13px;&quot;&gt;&lt;br style=&quot;font-size: 13px;&quot;&gt;&lt;b style=&quot;font-size: 13px;&quot;&gt;VM 10.100.0.4&lt;/b&gt;" style="whiteSpace=wrap;html=1;fillColor=#eeeeee;strokeColor=#36393d;dashed=1;fontSize=13;" parent="1" vertex="1">
                    <mxGeometry x="333.85" y="682" width="160" height="100" as="geometry"/>
                </mxCell>
                <mxCell id="19" value="spoke1conn" style="text;html=1;align=center;verticalAlign=middle;resizable=0;points=[];autosize=1;strokeColor=none;fillColor=none;rotation=33.1;fontSize=13;" parent="1" vertex="1">
                    <mxGeometry x="284.35" y="462" width="90" height="30" as="geometry"/>
                </mxCell>
                <mxCell id="20" value="spoke2conn" style="text;html=1;align=center;verticalAlign=middle;resizable=0;points=[];autosize=1;strokeColor=none;fillColor=none;rotation=-52.7;fontColor=#6600CC;fontStyle=1;fontSize=13;" parent="1" vertex="1">
                    <mxGeometry x="426.35" y="462" width="100" height="30" as="geometry"/>
                </mxCell>
                <mxCell id="22" style="edgeStyle=none;html=1;entryX=1.02;entryY=0.343;entryDx=0;entryDy=0;entryPerimeter=0;strokeColor=#6600CC;fontColor=#6600CC;exitX=-0.019;exitY=0.5;exitDx=0;exitDy=0;exitPerimeter=0;fontSize=13;" edge="1" parent="1" source="21" target="20">
                    <mxGeometry relative="1" as="geometry"/>
                </mxCell>
                <mxCell id="21" value="Static Route:&lt;br style=&quot;font-size: 13px;&quot;&gt;10.2.0.0/16 Next Hop 10.2.0.68" style="text;html=1;align=left;verticalAlign=middle;resizable=0;points=[];autosize=1;strokeColor=none;fillColor=none;fontColor=#6600CC;fontStyle=1;fontSize=13;" vertex="1" parent="1">
                    <mxGeometry x="524.35" y="425" width="210" height="40" as="geometry"/>
                </mxCell>
                <mxCell id="24" style="edgeStyle=none;html=1;entryX=-0.006;entryY=0.306;entryDx=0;entryDy=0;entryPerimeter=0;strokeColor=#6600CC;fontColor=#6600CC;exitX=1.014;exitY=0.507;exitDx=0;exitDy=0;exitPerimeter=0;fontSize=13;" edge="1" parent="1" source="23" target="12">
                    <mxGeometry relative="1" as="geometry"/>
                </mxCell>
                <mxCell id="23" value="&lt;div style=&quot;text-align: left; font-size: 13px;&quot;&gt;&lt;span style=&quot;background-color: initial; font-size: 13px;&quot;&gt;Default route table static routes:&lt;/span&gt;&lt;/div&gt;&lt;div style=&quot;text-align: left; font-size: 13px;&quot;&gt;&lt;span style=&quot;background-color: initial; font-size: 13px;&quot;&gt;to-Spoke2-AzFW - 10.2.0.0/16 - spoke2conn&lt;/span&gt;&lt;/div&gt;&lt;div style=&quot;text-align: left; font-size: 13px;&quot;&gt;&lt;span style=&quot;background-color: initial; font-size: 13px;&quot;&gt;to-Spoke4-AzFW - 10.4.0.0/16 - spoke4conn&lt;/span&gt;&lt;/div&gt;" style="text;html=1;align=center;verticalAlign=middle;resizable=0;points=[];autosize=1;strokeColor=none;fillColor=none;fontColor=#6600CC;fontStyle=1;fontSize=13;" vertex="1" parent="1">
                    <mxGeometry x="60" y="486" width="290" height="60" as="geometry"/>
                </mxCell>
                <mxCell id="25" style="edgeStyle=none;html=1;exitX=0.5;exitY=1;exitDx=0;exitDy=0;endArrow=none;endFill=0;fontSize=13;" edge="1" parent="1" source="26">
                    <mxGeometry relative="1" as="geometry">
                        <mxPoint x="941.1" y="502" as="targetPoint"/>
                    </mxGeometry>
                </mxCell>
                <mxCell id="26" value="&lt;b style=&quot;font-size: 13px;&quot;&gt;Spoke3&lt;/b&gt;&lt;br style=&quot;font-size: 13px;&quot;&gt;10.3.0.0/24&lt;br style=&quot;font-size: 13px;&quot;&gt;&lt;br style=&quot;font-size: 13px;&quot;&gt;&lt;b style=&quot;font-size: 13px;&quot;&gt;VM 10.3.0.4&lt;/b&gt;" style="whiteSpace=wrap;html=1;fillColor=#dae8fc;strokeColor=#6c8ebf;dashed=1;fontSize=13;" vertex="1" parent="1">
                    <mxGeometry x="741.1" y="322" width="160" height="100" as="geometry"/>
                </mxCell>
                <mxCell id="27" value="" style="aspect=fixed;html=1;points=[];align=center;image;fontSize=13;image=img/lib/azure2/networking/Virtual_Networks.svg;dashed=1;" vertex="1" parent="1">
                    <mxGeometry x="881.1" y="322" width="16.75" height="10" as="geometry"/>
                </mxCell>
                <mxCell id="28" style="edgeStyle=none;html=1;exitX=0.5;exitY=1;exitDx=0;exitDy=0;entryX=0.769;entryY=0.313;entryDx=0;entryDy=0;entryPerimeter=0;endArrow=none;endFill=0;fontSize=13;" edge="1" parent="1" source="29" target="39">
                    <mxGeometry relative="1" as="geometry"/>
                </mxCell>
                <mxCell id="29" value="Spoke4&lt;br style=&quot;font-size: 13px;&quot;&gt;10.4.0.0/24&lt;br style=&quot;font-size: 13px;&quot;&gt;&lt;br style=&quot;font-size: 13px;&quot;&gt;&lt;b style=&quot;font-size: 13px;&quot;&gt;AZFW 10.4.0.68&lt;/b&gt;" style="whiteSpace=wrap;html=1;fillColor=#f8cecc;strokeColor=#b85450;dashed=1;fontSize=13;" vertex="1" parent="1">
                    <mxGeometry x="981.1" y="322" width="160" height="100" as="geometry"/>
                </mxCell>
                <mxCell id="30" value="" style="aspect=fixed;html=1;points=[];align=center;image;fontSize=13;image=img/lib/azure2/networking/Virtual_Networks.svg;dashed=1;" vertex="1" parent="1">
                    <mxGeometry x="1121.1" y="322" width="16.75" height="10" as="geometry"/>
                </mxCell>
                <mxCell id="31" style="edgeStyle=none;html=1;exitX=0.5;exitY=1;exitDx=0;exitDy=0;entryX=0.5;entryY=0;entryDx=0;entryDy=0;endArrow=none;endFill=0;fontSize=13;" edge="1" parent="1" source="32" target="29">
                    <mxGeometry relative="1" as="geometry"/>
                </mxCell>
                <mxCell id="32" value="&lt;b style=&quot;font-size: 13px;&quot;&gt;Spoke7&lt;/b&gt;&lt;br style=&quot;font-size: 13px;&quot;&gt;10.4.1.0/24&lt;br style=&quot;font-size: 13px;&quot;&gt;&lt;br style=&quot;font-size: 13px;&quot;&gt;&lt;b style=&quot;font-size: 13px;&quot;&gt;VM 10.4.1.4&lt;/b&gt;" style="whiteSpace=wrap;html=1;fillColor=#dae8fc;strokeColor=#6c8ebf;dashed=1;fontSize=13;" vertex="1" parent="1">
                    <mxGeometry x="861.1" y="182" width="160" height="100" as="geometry"/>
                </mxCell>
                <mxCell id="33" value="" style="aspect=fixed;html=1;points=[];align=center;image;fontSize=13;image=img/lib/azure2/networking/Virtual_Networks.svg;dashed=1;" vertex="1" parent="1">
                    <mxGeometry x="1001.1" y="182" width="16.75" height="10" as="geometry"/>
                </mxCell>
                <mxCell id="34" style="edgeStyle=none;html=1;exitX=0.5;exitY=1;exitDx=0;exitDy=0;endArrow=none;endFill=0;fontSize=13;" edge="1" parent="1" source="35">
                    <mxGeometry relative="1" as="geometry">
                        <mxPoint x="1061.1" y="322" as="targetPoint"/>
                    </mxGeometry>
                </mxCell>
                <mxCell id="35" value="&lt;b style=&quot;font-size: 13px;&quot;&gt;Spoke8&lt;/b&gt;&lt;br style=&quot;font-size: 13px;&quot;&gt;10.4.2.0/24&lt;br style=&quot;font-size: 13px;&quot;&gt;&lt;br style=&quot;font-size: 13px;&quot;&gt;&lt;b style=&quot;font-size: 13px;&quot;&gt;VM 10.4.2.4&lt;/b&gt;" style="whiteSpace=wrap;html=1;fillColor=#dae8fc;strokeColor=#6c8ebf;dashed=1;fontSize=13;" vertex="1" parent="1">
                    <mxGeometry x="1076.1" y="182" width="160" height="100" as="geometry"/>
                </mxCell>
                <mxCell id="36" value="" style="aspect=fixed;html=1;points=[];align=center;image;fontSize=13;image=img/lib/azure2/networking/Virtual_Networks.svg;dashed=1;" vertex="1" parent="1">
                    <mxGeometry x="1219.35" y="182" width="16.75" height="10" as="geometry"/>
                </mxCell>
                <mxCell id="37" style="edgeStyle=none;html=1;endArrow=none;endFill=0;strokeColor=#FF8000;entryX=0.5;entryY=0;entryDx=0;entryDy=0;strokeWidth=2;fontSize=13;" edge="1" parent="1" source="39" target="40">
                    <mxGeometry relative="1" as="geometry">
                        <mxPoint x="964.1" y="652" as="targetPoint"/>
                    </mxGeometry>
                </mxCell>
                <mxCell id="38" value="IPSec + BGP" style="edgeLabel;html=1;align=center;verticalAlign=middle;resizable=0;points=[];fontStyle=1;fontColor=#FF8000;fontSize=13;" vertex="1" connectable="0" parent="37">
                    <mxGeometry x="0.3666" y="-2" relative="1" as="geometry">
                        <mxPoint x="-49" y="4" as="offset"/>
                    </mxGeometry>
                </mxCell>
                <mxCell id="39" value="&lt;b style=&quot;font-size: 13px;&quot;&gt;Hub2&lt;br style=&quot;font-size: 13px;&quot;&gt;192.168.2.0/24&lt;/b&gt;" style="aspect=fixed;html=1;points=[];align=center;image;fontSize=13;image=img/lib/azure2/networking/Virtual_WANs.svg;" vertex="1" parent="1">
                    <mxGeometry x="931.1" y="492" width="79.22" height="78" as="geometry"/>
                </mxCell>
                <mxCell id="40" value="&lt;b style=&quot;font-size: 13px;&quot;&gt;Branch 2&lt;/b&gt;&lt;br style=&quot;font-size: 13px;&quot;&gt;10.100.0.0/16&lt;br style=&quot;font-size: 13px;&quot;&gt;&lt;br style=&quot;font-size: 13px;&quot;&gt;&lt;b style=&quot;font-size: 13px;&quot;&gt;VM 10.200.0.4&lt;/b&gt;" style="whiteSpace=wrap;html=1;fillColor=#eeeeee;strokeColor=#36393d;dashed=1;fontSize=13;" vertex="1" parent="1">
                    <mxGeometry x="890.6" y="682" width="160" height="100" as="geometry"/>
                </mxCell>
                <mxCell id="41" value="spoke3conn" style="text;html=1;align=center;verticalAlign=middle;resizable=0;points=[];autosize=1;strokeColor=none;fillColor=none;rotation=33.1;fontSize=13;" vertex="1" parent="1">
                    <mxGeometry x="841.1" y="462" width="90" height="30" as="geometry"/>
                </mxCell>
                <mxCell id="42" value="spoke4conn" style="text;html=1;align=center;verticalAlign=middle;resizable=0;points=[];autosize=1;strokeColor=none;fillColor=none;rotation=-52.7;fontColor=#6600CC;fontStyle=1;fontSize=13;" vertex="1" parent="1">
                    <mxGeometry x="983.1" y="462" width="100" height="30" as="geometry"/>
                </mxCell>
                <mxCell id="43" style="edgeStyle=none;html=1;entryX=1.02;entryY=0.343;entryDx=0;entryDy=0;entryPerimeter=0;strokeColor=#6600CC;fontColor=#6600CC;exitX=-0.019;exitY=0.5;exitDx=0;exitDy=0;exitPerimeter=0;fontSize=13;" edge="1" parent="1" source="44" target="42">
                    <mxGeometry relative="1" as="geometry"/>
                </mxCell>
                <mxCell id="44" value="Static Route:&lt;br style=&quot;font-size: 13px;&quot;&gt;10.4.0.0/16 Next Hop 10.4.0.68" style="text;html=1;align=left;verticalAlign=middle;resizable=0;points=[];autosize=1;strokeColor=none;fillColor=none;fontColor=#6600CC;fontStyle=1;fontSize=13;" vertex="1" parent="1">
                    <mxGeometry x="1081.1" y="425" width="210" height="40" as="geometry"/>
                </mxCell>
                <mxCell id="45" style="edgeStyle=none;html=1;strokeColor=#6600CC;fontColor=#6600CC;exitX=0.002;exitY=0.5;exitDx=0;exitDy=0;exitPerimeter=0;fontSize=13;" edge="1" parent="1" source="46">
                    <mxGeometry relative="1" as="geometry">
                        <mxPoint x="1008.35" y="520" as="targetPoint"/>
                    </mxGeometry>
                </mxCell>
                <mxCell id="46" value="&lt;div style=&quot;text-align: left; font-size: 13px;&quot;&gt;&lt;span style=&quot;background-color: initial; font-size: 13px;&quot;&gt;Default route table static routes:&lt;/span&gt;&lt;/div&gt;&lt;div style=&quot;text-align: left; font-size: 13px;&quot;&gt;&lt;span style=&quot;background-color: initial; font-size: 13px;&quot;&gt;to-Spoke2-AzFW - 10.2.0.0/16 - spoke2conn&lt;/span&gt;&lt;/div&gt;&lt;div style=&quot;text-align: left; font-size: 13px;&quot;&gt;&lt;span style=&quot;background-color: initial; font-size: 13px;&quot;&gt;to-Spoke4-AzFW - 10.4.0.0/16 - spoke4conn&lt;/span&gt;&lt;/div&gt;" style="text;html=1;align=center;verticalAlign=middle;resizable=0;points=[];autosize=1;strokeColor=none;fillColor=none;fontColor=#6600CC;fontStyle=1;fontSize=13;" vertex="1" parent="1">
                    <mxGeometry x="1031.45" y="490" width="290" height="60" as="geometry"/>
                </mxCell>
                <mxCell id="48" value="Inter-Hub" style="text;html=1;align=center;verticalAlign=middle;resizable=0;points=[];autosize=1;strokeColor=none;fillColor=none;fontColor=#000000;fontSize=13;" vertex="1" parent="1">
                    <mxGeometry x="639.35" y="540" width="80" height="30" as="geometry"/>
                </mxCell>
                <mxCell id="51" value="&lt;span style=&quot;color: rgb(0, 0, 0); font-size: 11px; background-color: rgb(251, 251, 251);&quot;&gt;UDR - 0.0,0,0/0 &lt;br style=&quot;font-size: 11px;&quot;&gt;Next Hop AZFW (10.2.0.68)&lt;/span&gt;" style="aspect=fixed;html=1;points=[];align=left;image;fontSize=11;image=img/lib/azure2/networking/Route_Tables.svg;fontColor=#FF8000;fontStyle=1" vertex="1" parent="1">
                    <mxGeometry x="303.70000000000005" y="120" width="20.65" height="20" as="geometry"/>
                </mxCell>
                <mxCell id="54" value="&lt;span style=&quot;color: rgb(0, 0, 0); font-size: 11px; background-color: rgb(251, 251, 251);&quot;&gt;UDR - 0.0,0,0/0 &lt;br style=&quot;font-size: 11px;&quot;&gt;Next Hop AZFW (10.2.0.68)&lt;/span&gt;" style="aspect=fixed;html=1;points=[];align=left;image;fontSize=11;image=img/lib/azure2/networking/Route_Tables.svg;fontColor=#FF8000;fontStyle=1" vertex="1" parent="1">
                    <mxGeometry x="521.35" y="120" width="20.65" height="20" as="geometry"/>
                </mxCell>
                <mxCell id="55" value="&lt;span style=&quot;color: rgb(0, 0, 0); font-size: 11px; background-color: rgb(251, 251, 251);&quot;&gt;UDR - 0.0,0,0/0 &lt;br style=&quot;font-size: 11px;&quot;&gt;Next Hop AZFW (10.4.0.68)&lt;/span&gt;" style="aspect=fixed;html=1;points=[];align=left;image;fontSize=11;image=img/lib/azure2/networking/Route_Tables.svg;fontColor=#FF8000;fontStyle=1" vertex="1" parent="1">
                    <mxGeometry x="860.45" y="120" width="20.65" height="20" as="geometry"/>
                </mxCell>
                <mxCell id="56" value="&lt;span style=&quot;color: rgb(0, 0, 0); font-size: 11px; background-color: rgb(251, 251, 251);&quot;&gt;UDR - 0.0,0,0/0 &lt;br style=&quot;font-size: 11px;&quot;&gt;Next Hop AZFW (10.4.0.68)&lt;/span&gt;" style="aspect=fixed;html=1;points=[];align=left;image;fontSize=11;image=img/lib/azure2/networking/Route_Tables.svg;fontColor=#FF8000;fontStyle=1" vertex="1" parent="1">
                    <mxGeometry x="1079.0000000000002" y="120" width="20.65" height="20" as="geometry"/>
                </mxCell>
            </root>
        </mxGraphModel>
    </diagram>
</mxfile>